<svg xmlns="http://www.w3.org/2000/svg" viewBox="0 0 340 120" fill="none">
  <style>
    .wordmark { font-family: -apple-system, BlinkMacSystemFont, 'Segoe UI', Helvetica, Arial, sans-serif; font-weight: 700; font-size: 64px; letter-spacing: 4px; }
  </style>

  <!-- Scaled Nexus mark — white version -->
  <g transform="translate(4, 4) scale(0.218)">
    <line x1="256" y1="216" x2="256" y2="88" stroke="#FFFFFF" stroke-width="10" stroke-linecap="square"/>
    <line x1="291" y1="236" x2="401" y2="136" stroke="#FFFFFF" stroke-width="10" stroke-linecap="square"/>
    <line x1="291" y1="276" x2="401" y2="376" stroke="#FFFFFF" stroke-width="10" stroke-linecap="square"/>
    <line x1="256" y1="296" x2="256" y2="424" stroke="#FFFFFF" stroke-width="10" stroke-linecap="square"/>
    <line x1="221" y1="276" x2="111" y2="376" stroke="#FFFFFF" stroke-width="10" stroke-linecap="square"/>
    <line x1="221" y1="236" x2="111" y2="136" stroke="#FFFFFF" stroke-width="10" stroke-linecap="square"/>
    <polygon points="256,204 296,230 296,282 256,308 216,282 216,230" fill="none" stroke="#FFFFFF" stroke-width="12"/>
    <circle cx="256" cy="256" r="10" fill="#FFFFFF"/>
    <polygon points="256,52 280,76 256,100 232,76" fill="#FFFFFF"/>
    <rect x="394" y="108" width="44" height="44" fill="#FFFFFF" rx="3"/>
    <circle cx="420" cy="392" r="24" fill="#FFFFFF"/>
    <rect x="234" y="416" width="44" height="44" fill="#FFFFFF" rx="10"/>
    <polygon points="96,376 120,352 144,376 120,400" fill="#FFFFFF"/>
    <circle cx="96" cy="130" r="24" fill="#FFFFFF" opacity="0.7"/>
    <circle cx="256" cy="156" r="5" fill="#FFFFFF" opacity="0.4"/>
    <circle cx="340" cy="190" r="5" fill="#FFFFFF" opacity="0.4"/>
    <circle cx="340" cy="322" r="5" fill="#FFFFFF" opacity="0.4"/>
    <circle cx="256" cy="360" r="5" fill="#FFFFFF" opacity="0.4"/>
    <circle cx="172" cy="322" r="5" fill="#FFFFFF" opacity="0.4"/>
    <circle cx="172" cy="190" r="5" fill="#FFFFFF" opacity="0.4"/>
  </g>

  <text x="130" y="86" class="wordmark" fill="#FFFFFF">asm</text>
</svg>
